G04*
G04 #@! TF.GenerationSoftware,Altium Limited,Altium Designer,20.0.13 (296)*
G04*
G04 Layer_Physical_Order=2*
G04 Layer_Color=16711680*
%FSLAX25Y25*%
%MOIN*%
G70*
G01*
G75*
%ADD13R,0.03150X0.03150*%
%ADD14R,0.05709X0.03740*%
%ADD19C,0.01968*%
%ADD20R,0.07874X0.06299*%
%ADD21O,0.07874X0.06299*%
%ADD22C,0.02362*%
G36*
X64961Y78740D02*
Y58240D01*
X61431Y54711D01*
X60952Y53995D01*
X60784Y53150D01*
Y49606D01*
X55905D01*
Y40945D01*
X64961D01*
Y38719D01*
X64461Y38473D01*
X63904Y38900D01*
X62894Y39318D01*
X61811Y39461D01*
X61524D01*
Y35276D01*
X61024D01*
Y34776D01*
X56117D01*
X56193Y34192D01*
X56612Y33183D01*
X57277Y32316D01*
X58144Y31651D01*
X59153Y31233D01*
X60236Y31090D01*
X60432D01*
Y29880D01*
X60600Y29035D01*
X61079Y28319D01*
X63399Y25998D01*
X64116Y25519D01*
X64961Y25351D01*
Y-0D01*
X0Y0D01*
X-0Y78740D01*
X64961Y78740D01*
D02*
G37*
%LPC*%
G36*
X60524Y39461D02*
X60236D01*
X59153Y39318D01*
X58144Y38900D01*
X57277Y38235D01*
X56612Y37368D01*
X56193Y36359D01*
X56117Y35776D01*
X60524D01*
Y39461D01*
D02*
G37*
G36*
X37213Y24467D02*
Y22842D01*
X38837D01*
X38767Y23193D01*
X38285Y23915D01*
X37564Y24397D01*
X37213Y24467D01*
D02*
G37*
G36*
X36213D02*
X35862Y24397D01*
X35140Y23915D01*
X34658Y23193D01*
X34588Y22842D01*
X36213D01*
Y24467D01*
D02*
G37*
G36*
X38837Y21843D02*
X37213D01*
Y20218D01*
X37564Y20288D01*
X38285Y20770D01*
X38767Y21492D01*
X38837Y21843D01*
D02*
G37*
G36*
X36213D02*
X34588D01*
X34658Y21492D01*
X35140Y20770D01*
X35862Y20288D01*
X36213Y20218D01*
Y21843D01*
D02*
G37*
%LPD*%
D13*
X72835Y34055D02*
D03*
Y27559D02*
D03*
D14*
Y49311D02*
D03*
Y56988D02*
D03*
D19*
X61024Y35276D02*
X62640Y33660D01*
Y29880D02*
Y33660D01*
Y29880D02*
X64961Y27559D01*
X72835D01*
Y34055D02*
Y49311D01*
X66831Y56988D02*
X72835D01*
X62992Y53150D02*
X66831Y56988D01*
X61024Y45276D02*
X62992Y47244D01*
Y53150D01*
D20*
X61024Y45276D02*
D03*
D21*
Y35276D02*
D03*
D22*
X36713Y22343D02*
D03*
M02*
